<?xml version="1.0" standalone="no"?>
<!DOCTYPE svg PUBLIC "-//W3C//DTD SVG 20010904//EN"
 "http://www.w3.org/TR/2001/REC-SVG-20010904/DTD/svg10.dtd">
<svg version="1.0" xmlns="http://www.w3.org/2000/svg"
 width="222.000000pt" height="222.000000pt" viewBox="0 0 222.000000 222.000000"
 preserveAspectRatio="xMidYMid meet">
<metadata>
Created by potrace 1.14, written by Peter Selinger 2001-2017
</metadata>
<g transform="translate(0.000000,222.000000) scale(0.100000,-0.100000)"
fill="#000000" stroke="none">
<path d="M940 1603 c-19 -10 -45 -33 -57 -52 -24 -35 -24 -41 -25 -211 0 -104
-15 -136 -65 -142 -25 -3 -41 2 -57 17 -21 19 -33 20 -197 19 -213 -2 -196 0
-204 -24 -6 -18 -15 -19 -108 -18 -56 1 -106 0 -112 -3 -5 -3 -21 -4 -35 -3
-28 3 -80 -14 -80 -26 0 -13 53 -30 82 -26 16 2 28 0 28 -3 0 -3 49 -5 109 -4
101 2 110 1 116 -17 8 -24 -8 -22 205 -24 163 -1 176 0 195 19 12 12 34 20 56
21 49 1 98 31 120 74 16 29 19 57 19 168 0 128 1 134 25 157 29 30 61 31 95 5
l25 -19 2 -393 c1 -216 5 -407 8 -424 5 -31 42 -72 82 -93 34 -17 95 -13 131
9 56 35 72 85 72 236 0 114 2 133 18 147 23 21 75 22 92 2 10 -12 46 -15 201
-15 173 0 189 1 201 19 12 17 29 19 153 22 100 2 147 7 163 18 21 13 22 16 8
30 -17 16 -40 18 -208 20 -85 1 -108 4 -108 15 0 24 -30 28 -210 30 -169 1
-176 0 -198 -21 -15 -15 -35 -23 -58 -23 -45 0 -86 -21 -110 -57 -16 -23 -20
-53 -24 -180 -6 -169 -11 -184 -70 -185 -23 -1 -39 6 -52 22 -17 21 -18 49
-18 419 0 357 -2 399 -18 430 -36 71 -123 100 -192 64z"/>
</g>
</svg>
